<svg width="39" height="20" viewBox="0 0 39 20" fill="none" xmlns="http://www.w3.org/2000/svg">
<path d="M16.4448 19.2739C16.1615 18.9909 16.3031 17.4342 16.4094 17.0096C16.6572 15.5237 17.0467 13.1887 16.551 11.5967C16.4802 11.066 16.1969 10.6768 15.8782 10.2876C13.2224 10.9952 10.779 9.79233 9.11474 8.30642C7.0255 6.85588 4.54675 4.9808 3.59066 4.69777C1.89094 4.3086 0.793213 4.06094 0.793213 4.06094C3.02409 0.20464 6.24646 -0.361422 10.3187 0.169262C15.9136 1.08911 17.1884 3.60102 17.3654 6.39595C17.4363 7.06815 17.1884 8.58945 16.3739 9.75695C17.33 11.0306 17.6487 12.3396 17.4363 14.4624C18.1445 13.4717 18.2861 13.2595 18.711 13.0118C18.0737 8.90786 19.6671 4.34398 28.6969 4.06094C35.5312 4.52087 37.8329 8.73096 38.4348 10.8537C36.5227 10.7122 34.6459 10.8537 31.2819 12.6226C27.1034 15.2407 23.102 15.736 19.0297 13.5779C17.1884 14.9223 17.4717 19.3093 17.4717 19.5569C16.8343 19.8753 16.4448 19.2739 16.4448 19.2739Z" fill="#2B7F68"/>
</svg>
