<svg width="122" height="122" viewBox="0 0 122 122" fill="none" xmlns="http://www.w3.org/2000/svg">
<circle cx="61" cy="61" r="61" fill="white"/>
<g clip-path="url(#clip0_452_407)">
<path fill-rule="evenodd" clip-rule="evenodd" d="M103.955 75.8824C104.606 76.333 104.765 77.2213 104.311 77.8666C99.7454 84.3535 91.8861 88.1621 81.0992 89.5392C70.2293 90.9268 59.1786 88.9953 47.9762 83.8107C42.6989 81.3684 37.579 80.5338 32.585 81.2395C27.5837 81.9463 22.6065 84.2127 17.648 88.1323C17.0276 88.6227 16.1241 88.5212 15.6298 87.9057C15.1356 87.2901 15.2379 86.3936 15.8582 85.9032C21.129 81.7368 26.5714 79.2106 32.18 78.418C37.796 77.6244 43.4766 78.5836 49.1903 81.2279C59.9698 86.2167 70.4741 88.0221 80.7326 86.7125C91.0739 85.3923 98.0263 81.8183 101.956 76.2349C102.41 75.5896 103.305 75.4318 103.955 75.8824Z" fill="black"/>
<path fill-rule="evenodd" clip-rule="evenodd" d="M71.0672 19.2792C71.4738 19.955 71.2514 20.8298 70.5704 21.2333C64.3206 24.9361 58.2209 31.7076 52.3234 41.7271C46.3375 51.8969 39.8908 61.5254 32.9829 70.6128C32.5053 71.2411 31.6047 71.3663 30.9715 70.8924C30.3382 70.4185 30.2121 69.525 30.6897 68.8967C37.5274 59.9014 43.912 50.3665 49.8431 40.2899C55.8626 30.063 62.2635 22.8355 69.0978 18.7863C69.7788 18.3829 70.6606 18.6035 71.0672 19.2792Z" fill="black"/>
<path fill-rule="evenodd" clip-rule="evenodd" d="M72.065 24.3793C72.4332 23.6822 73.3012 23.4132 74.0038 23.7786C88.719 31.4307 97.7037 43.6605 100.915 60.3365C101.064 61.1096 100.553 61.8559 99.7735 62.0036C98.9944 62.1513 98.2422 61.6444 98.0933 60.8714C95.0405 45.0163 86.5807 33.5365 72.6704 26.3029C71.9679 25.9376 71.6968 25.0763 72.065 24.3793Z" fill="black"/>
<path fill-rule="evenodd" clip-rule="evenodd" d="M91.8961 61.0686C92.1895 61.4344 92.2834 61.9197 92.1474 62.3673L87.4367 77.8713C87.2078 78.6248 86.4066 79.0515 85.6472 78.8243C84.8877 78.5972 84.4577 77.8022 84.6867 77.0487L88.7988 63.5143L47.6676 66.2278C46.8762 66.2801 46.1919 65.6858 46.1393 64.9005C46.0867 64.1152 46.6856 63.4363 47.4771 63.3841L90.6771 60.5341C91.1472 60.5031 91.6027 60.7028 91.8961 61.0686Z" fill="black"/>
<path fill-rule="evenodd" clip-rule="evenodd" d="M72.0005 14.4629C72.7548 14.2194 73.5652 14.6287 73.8106 15.3771C74.3428 17.0003 74.6342 19.2239 74.7355 21.9703C74.8376 24.7379 74.7489 28.1248 74.4755 32.12C73.9287 40.1111 72.6371 50.6203 70.6074 63.6331C70.486 64.4109 69.7523 64.9438 68.9684 64.8234C68.1846 64.7031 67.6475 63.975 67.7688 63.1972C69.7929 50.2203 71.0709 39.8016 71.6098 31.927C71.8792 27.9893 71.9623 24.7088 71.8651 22.0745C71.7671 19.4191 71.4882 17.5065 71.0792 16.2589C70.8338 15.5105 71.2463 14.7064 72.0005 14.4629Z" fill="black"/>
</g>
<defs>
<clipPath id="clip0_452_407">
<rect width="90" height="76" fill="white" transform="translate(15 14)"/>
</clipPath>
</defs>
</svg>
