<svg width="122" height="122" viewBox="0 0 122 122" fill="none" xmlns="http://www.w3.org/2000/svg">
<circle cx="61" cy="61" r="61" fill="white"/>
<path d="M73.7893 55.7603C76.5482 58.8036 76.8431 67.8508 83.7617 64.2569C87.9212 62.0963 87.8685 52.9558 82.3189 49.6631C77.8224 47.0457 75.3688 50.5772 73.7471 54.9085C73.6102 55.2514 73.5998 55.5942 73.7893 55.7603Z" fill="black"/>
<path d="M63.0361 54.3165C60.1402 56.6847 58.15 63.1661 52.8321 60.9641C48.5358 58.8036 48.1145 50.4006 55.5279 46.5158C60.6879 44.1788 63.31 48.8113 63.352 53.7348C63.352 53.9114 63.1836 54.1711 63.0361 54.3165Z" fill="black"/>
<path d="M70.1753 70.8631C73.0291 70.5724 72.3867 67.9548 70.2175 67.3004C68.2799 66.7292 65.3524 66.3655 63.2778 66.3968C59.6028 66.4799 59.6976 69.2532 61.6036 69.7206C63.0462 70.1984 63.9834 70.3853 65.226 71.9745C66.3739 74.1558 65.8684 71.3201 70.1753 70.8631Z" fill="black"/>
<path d="M83.6522 24.0815C87.243 18.1921 93.4877 19.3346 96.6151 22.2638C100.059 25.4526 100.617 29.1399 99.2898 31.7367C97.4892 35.2163 92.8978 39.4438 89.9072 35.3514C88.5909 33.544 85.7793 31.3835 84.2524 30.7707C81.9041 29.7943 81.4619 27.6961 83.6522 24.0815Z" fill="black"/>
<path d="M70.4177 77.0025C68.8486 81.0847 60.7296 79.6823 60.4769 75.7353C60.4769 75.5795 60.6981 75.6106 60.7823 75.6314C64.3942 76.4624 67.8377 76.8572 70.165 76.8467C70.2597 76.8572 70.4493 76.8052 70.4177 77.0025ZM97.9442 50.0691C97.6178 49.0201 97.0912 49.0823 97.1229 49.9444C97.4177 60.6847 90.9099 72.1933 76.9886 72.2765C73.4294 72.2868 74.4929 77.9062 68.0062 75.0809C63.3202 71.9648 60.6454 78.0931 57.3073 71.4975C56.5808 69.5967 55.4856 68.8384 54.0639 68.4852C40.3216 65.1302 35.9305 46.4649 48.0511 31.4036C50.452 32.8163 51.326 33.0345 53.8849 30.7181C55.2222 29.5029 57.4547 28.163 58.6763 27.7163C61.5931 26.6153 63.1727 25.3896 60.6454 19.9157C57.4126 12.8006 50.7995 14.8157 47.7668 17.267C44.3549 20.0507 41.9538 24.5275 46.3556 29.8041C34.0455 37.9994 31.9289 48.0644 32.2132 56.8102C32.5081 66.1169 30.0966 65.3172 33.0978 74.7901C33.361 75.6211 32.7714 75.6003 32.3185 75.3302C19.482 67.2284 12.5529 42.5073 32.5502 28.8797C33.003 28.485 32.8135 27.9656 31.1707 28.9108C13.8587 37.9372 12.2686 55.4288 15.1434 67.218C16.544 72.9204 14.4168 73.9799 16.6598 81.4793C21.8092 97.1117 26.2004 98.3373 32.4133 98.7943C43.7124 98.7943 36.0464 92.6557 36.4571 84.9279C36.4571 84.4812 37.0152 84.2526 37.331 85.1875C43.544 98.9398 47.9352 111.456 64.2785 110.282C73.7348 109.067 68.4906 104.434 67.9114 101.807C60.9508 79.0384 77.831 73.6684 73.0608 95.8653C69.9016 108.579 79.8845 107.312 86.8978 102.741C94.1322 98.0673 103.188 67.1142 97.9442 50.0691Z" fill="black"/>
</svg>
