<?xml version="1.0" encoding="UTF-8"?>
<svg width="508px" height="207px" viewBox="0 0 508 207" version="1.1" xmlns="http://www.w3.org/2000/svg" xmlns:xlink="http://www.w3.org/1999/xlink">
    <!-- Generator: Sketch 40 (33762) - http://www.bohemiancoding.com/sketch -->
    <title>Carpet</title>
    <desc>Created with Sketch.</desc>
    <defs></defs>
    <g id="Page-1" stroke="none" stroke-width="1" fill="none" fill-rule="evenodd">
        <g id="Artboard" transform="translate(-511.000000, -641.000000)" fill="#111111">
            <path d="M538.46,683.36 C539,683.18 538.46,682.82 538.82,682.28 C539,681.74 539.9,681.2 540.26,680.48 C540.98,678.86 541.34,678.32 542.6,677.78 C542.24,678.68 541.34,679.58 540.62,680.66 C540.08,681.74 539.9,683 538.46,683.36 L538.46,683.36 Z M533.96,690.92 C534.14,691.46 533.06,691.64 533.78,691.82 C533.78,691.82 534.68,690.92 533.96,690.92 L533.96,690.92 Z M525.32,705.86 C525.14,706.76 525.14,707.12 524.96,707.84 C525.5,707.66 525.86,707.12 526.04,706.4 C525.5,706.4 525.86,705.86 525.32,705.86 L525.32,705.86 Z M524.06,714.5 C524.06,715.04 523.88,715.58 523.34,715.76 C523.16,715.4 522.98,714.5 524.06,714.5 L524.06,714.5 Z M515.6,718.64 C515.6,718.82 514.7,719.54 515.42,719.72 C515.42,719.54 516.32,718.82 515.6,718.64 L515.6,718.64 Z M629.18,733.94 C628.46,735.02 627.74,734.66 626.3,736.1 C624.68,738.08 623.24,738.8 621.44,740.42 C620,741.68 618.74,743.48 616.76,744.74 C613.52,748.16 612.26,747.44 609.56,749.96 C608.12,751.4 607.22,751.76 605.78,753.02 C604.16,754.1 602.54,754.64 601.1,755.54 C600.56,756.08 600.38,756.8 599.66,757.52 C599.3,758.24 598.58,758.24 597.86,758.6 C594.44,760.4 594.98,759.68 591.92,761.84 C588.5,763.82 588.14,763.1 584.72,764.9 C583.1,765.26 583.82,765.08 582.2,765.26 C581.3,765.44 580.58,764.9 579.5,765.26 C578.96,765.26 578.24,765.98 577.7,766.16 C574.1,767.42 570.14,768.14 566.18,768.32 C559.88,768.68 552.86,767.42 547.1,764.18 C541.52,761.48 540.26,755.72 540.26,749.78 C540.08,746.36 540.26,742.22 540.98,738.44 C541.16,737 540.98,735.92 540.62,734.84 C540.26,733.04 540.98,731.78 541.34,730.52 C542.06,729.08 543.14,726.92 543.14,724.94 C543.14,723.14 542.6,722.24 543.32,720.8 C544.22,718.28 545.84,715.22 546.56,712.88 C546.56,711.08 547.82,709.82 547.82,708.02 C548,706.76 548.18,705.5 548.72,703.7 C550.16,700.64 551.78,698.3 553.04,694.88 C553.58,693.44 555.2,692.54 555.56,690.92 C556.46,686.6 559.7,682.28 560.96,679.4 C564.92,673.64 570.14,668.6 575,663.74 C579.86,659.24 585.44,655.82 589.58,653.66 C591.74,652.58 596.78,650.96 598.76,652.4 C599.48,652.58 600.56,653.12 600.56,654.02 C600.56,655.28 601.46,656.36 602.54,656.9 C603.26,657.26 604.16,659.24 604.34,659.96 C605.06,661.4 605.78,661.76 606.5,662.84 C607.04,663.74 607.04,664.64 607.22,665.72 C607.4,666.8 608.3,668.6 608.48,670.04 C609.2,673.64 609.38,677.24 609.38,680.66 C609.38,683.36 609.2,686.96 607.22,689.48 C605.96,691.82 610.82,693.8 612.44,694.52 C614.6,695.78 615.86,693.8 616.58,691.64 C618.92,685.52 620.54,679.58 620.9,673.28 C621.26,666.62 620.36,660.5 616.94,655.1 C613.88,650.24 611.36,647.72 605.96,644.12 C600.38,641.24 591.92,641.06 587.42,641.96 C583.82,642.68 581.12,644.12 577.7,645.2 C575.9,645.56 575,646.64 573.56,647.36 C571.94,647.72 570.5,648.26 569.42,649.34 C569.06,649.7 569.6,649.34 569.78,649.52 C570.32,649.88 568.52,650.42 568.34,650.42 C565.46,651.86 561.86,653.84 559.52,656.18 C558.26,656.9 557.9,658.34 556.82,659.24 C554.48,661.04 553.04,663.38 551.06,665.54 C550.7,666.08 549.98,666.44 549.08,666.98 C548.9,667.52 548.72,668.06 548.54,668.6 C547.82,669.14 546.56,670.22 546.56,671.3 C547.46,670.04 548.54,668.96 549.62,668.06 C550.34,667.52 551.24,666.44 552.32,666.44 C550.88,666.62 550.7,668.78 549.98,669.32 C548.9,670.76 548.18,672.38 546.92,673.1 C545.84,674 544.94,674.72 544.22,676.16 C543.86,676.52 543.32,677.6 542.78,677.96 C542.6,677.96 542.42,677.24 542.06,677.42 C541.7,678.32 542.6,679.58 541.7,680.12 C541.34,679.76 540.98,678.68 540.26,679.94 C540.26,680.48 540.08,681.2 539.18,681.56 C539,681.56 538.46,683.18 538.28,683.36 C537.74,684.08 537.02,684.8 536.12,684.8 C535.94,686.06 535.04,687.14 534.5,688.4 C534.86,688.58 535.22,687.68 535.58,688.22 C535.22,688.58 534.86,689.3 535.22,689.84 C536.3,688.04 537.2,685.52 539,684.08 C536.66,688.04 534.86,692 532.7,695.96 C531.98,697.4 531.44,699.02 529.82,700.28 C528.74,700.64 530.18,702.26 528.74,702.44 C528.56,702.44 528.74,701.72 528.74,701.72 C528.02,701.54 528.56,702.62 527.66,702.44 C527.66,701 529.46,701.36 528.74,699.92 C527.48,700.1 527.3,701.18 526.58,702.08 C526.58,701.36 526.94,701.36 526.94,700.64 C526.04,700.64 525.86,701.72 525.14,702.44 C526.4,702.8 524.78,704.24 525.32,704.6 C525.5,703.52 526.4,703.34 526.94,703.52 C526.94,704.6 526.04,705.86 526.58,707.12 C526.94,706.4 527.3,703.7 528.56,703.88 C528.2,706.94 526.04,709.64 524.42,712.16 C524.06,713.24 524.06,714.5 523.34,715.58 C522.8,716.48 522.62,718.64 521.54,719 C521.54,720.08 521.54,721.52 520.82,722.24 C520.46,723.14 519.74,723.86 519.74,724.76 C519.56,726.02 519.74,727.64 517.94,727.64 C517.94,727.28 518.48,725.84 517.76,724.94 C516.86,725.48 517.4,727.28 517.4,727.64 C517.58,729.26 517.22,730.16 516.32,730.88 C515.78,730.16 517.22,728.72 516.32,728.36 C515.42,727.46 516.5,724.94 516.68,723.86 C516.86,722.6 516.32,721.88 516.5,720.62 C516.86,719.54 517.94,718.28 517.94,717.2 C518.84,717.38 518.66,717.2 519.02,716.84 C519.02,715.76 519.38,715.22 519.92,714.68 C519.92,716.3 519.02,717.56 519.38,718.46 C519.92,717.2 520.1,715.22 520.82,714.14 C519.92,713.6 520.64,714.5 519.92,714.5 C520.1,713.42 520.82,713.06 520.82,711.98 C519.56,712.88 519.92,714.68 518.84,715.58 C518.84,714.5 518.3,713.96 517.22,713.24 C516.5,713.06 515.6,714.5 515.42,715.04 C515.06,715.76 516.32,717.56 516.32,718.64 C516.32,719.9 516.32,720.98 515.42,721.88 C515.06,721.88 515.24,721.7 515.06,721.88 C514.16,722.24 513.44,722.6 512.9,723.14 C513.44,724.4 513.26,726.38 513.26,728.36 C513.62,728.72 513.98,727.64 514.16,728.36 C513.98,729.8 513.62,730.88 513.26,732.32 C512.9,731.78 513.26,730.7 512.36,730.7 C512.36,731.24 511.46,730.7 511.28,731.42 C511.1,731.96 511.82,733.04 511.82,733.58 C512,734.12 512.36,734.84 512.36,735.02 C512.54,736.28 512.36,737.9 512.36,739.34 C512.18,741.32 512.36,743.66 512.54,745.64 C512.9,746.9 512.36,749.06 513.44,750.32 C513.98,751.04 513.98,751.76 513.98,752.48 C513.62,753.56 514.16,754.1 514.34,754.64 C515.24,756.44 515.6,758.42 516.32,760.04 C517.4,763.64 519.02,766.88 521.54,769.76 C522.08,770.84 522.8,771.56 523.34,772.64 C523.88,773.54 524.06,774.62 524.42,775.16 C525.14,775.88 526.22,776.06 526.58,776.6 C526.94,777.14 526.94,777.86 527.3,778.04 C528.02,778.76 529.28,778.94 530.36,779.3 C531.44,779.84 532.34,780.2 532.88,780.92 C534.86,781.64 536.12,782.72 538.28,783.62 C541.7,785.24 545.84,785.78 549.98,786.5 C551.96,786.68 554.12,787.04 556.1,786.86 C557.9,786.68 559.52,786.32 561.5,786.5 C562.22,786.32 561.86,785.24 562.94,785.78 C563.12,785.96 564.2,785.78 564.92,785.6 C567.44,784.34 570.14,784.16 572.66,782.72 C572.66,783.26 572.48,783.44 572.48,783.62 C573.02,783.44 573.74,783.26 573.92,782.36 C573.38,782.36 572.84,783.26 572.66,782.54 C573.74,782 575,781.28 576.08,780.92 C576.26,781.46 575.72,781.64 575.72,782.36 C576.26,782.54 577.34,780.92 577.34,780.2 C577.88,780.2 577.16,781.1 578.06,780.92 C578.24,780.02 579.5,780.02 580.22,779.84 C583.46,778.4 586.34,776.6 590.3,774.62 C594.62,772.28 594.98,771.92 598.4,768.68 C601.46,766.16 602,766.16 605.06,763.64 C605.96,762.92 606.5,761.84 607.22,761.12 C607.94,760.76 609.02,760.76 609.2,760.04 C610.28,758.24 611.9,756.8 613.52,755.54 C616.76,752.12 618.2,753.38 620.36,749.6 C620.54,748.88 622.16,747.08 622.52,746.72 C626.3,744.2 623.24,746 626.3,743.3 C628.46,740.96 629.18,738.26 629.54,737.36 C630.62,734.84 629.9,733.94 629.18,733.94 L629.18,733.94 Z M514.16,727.28 C513.98,726.56 514.34,726.38 514.34,725.84 C515.06,726.02 515.06,727.46 514.16,727.28 L514.16,727.28 Z M515.06,737 C514.16,737 514.34,735.92 514.34,735.2 C515.06,735.56 514.7,736.28 515.06,737 L515.06,737 Z M515.06,737.72 C515.24,737 516.14,736.82 516.32,736.28 L516.5,736.28 C517.4,739.16 516.14,741.32 516.14,743.84 C515.06,743.12 515.06,741.32 515.06,740.06 C515.06,739.52 515.6,739.88 515.6,739.52 C515.42,738.98 515.06,738.44 515.06,737.72 L515.06,737.72 Z M513.26,743.48 C512.54,743.3 513.08,742.22 513.08,742.22 C513.62,742.22 513.62,742.22 514.34,742.4 C514.52,743.3 514.16,743.66 514.16,744.2 C513.62,744.2 513.62,742.22 513.26,743.48 L513.26,743.48 Z M532.7,693.62 C531.44,694.7 530.54,695.96 529.82,697.76 C531.44,696.86 531.62,694.88 532.7,693.62 L532.7,693.62 Z M519.02,723.68 C519.02,722.78 519.92,720.8 519.56,720.8 C519.38,721.7 518.84,722.78 519.02,723.68 L519.02,723.68 Z M713.06,734.12 C712.16,732.86 710.54,733.4 708.92,734.84 C705.14,738.26 695.96,746.36 692.18,749.6 C691.64,749.78 691.28,750.14 690.74,750.32 C690.38,750.86 690.2,751.76 689.66,752.12 C686.96,754.46 686.78,754.64 682.64,757.34 C677.42,760.04 674,763.1 667.7,760.58 C666.26,758.6 665.54,755.54 665.54,752.84 C665.54,748.16 666.98,743.48 668.06,740.24 C668.6,738.8 669.14,737 669.68,735.74 C672.74,728.54 677.6,721.88 676.7,714.68 C674.18,710.72 668.96,707.84 662.12,709.1 C660.14,710.72 659.96,713.96 658.16,715.4 C654.92,714.5 653.3,711.98 649.7,711.8 C648.08,713.06 645.74,713.6 644.12,714.5 C642.14,715.58 640.88,717.56 638.72,717.74 C637.28,717.2 628.1,725.12 628.1,725.12 C623.6,729.44 620.9,735.74 617.3,741.68 C617.12,743.12 618.2,743.12 617.84,744.56 C616.22,744.74 617.12,747.98 616.22,749.06 C618.02,752.3 618.92,754.46 622.16,756.08 C625.4,757.34 629.9,758.96 632.96,758.6 C637.28,757.88 642.5,750.86 644.3,748.16 C645.2,747.44 645.92,745.46 647.18,746.72 C647.9,763.1 654.92,767.42 672.02,767.42 C676.16,767.06 683.54,766.52 690.38,761.12 C690.56,760.94 690.56,760.4 690.74,760.04 C691.28,759.68 692.18,759.86 692.54,759.68 C693.44,758.78 693.8,758.6 694.7,757.88 C695.6,757.34 696.5,756.26 697.58,755.72 C698.3,755.36 699.02,753.92 699.74,753.2 C702.98,750.86 707.3,746 708.74,743.3 C709.82,741.68 713.24,737.18 713.06,735.02 L713.06,734.12 Z M652.58,724.04 C651.68,727.46 648.98,730.16 646.82,732.68 C643.58,736.28 639.8,741.68 634.22,743.66 C639.26,735.92 644.12,728.36 651.86,723.32 C652.94,723.32 652.94,724.04 652.58,724.04 L652.58,724.04 Z M736.64,719.36 C738.62,715.58 740.96,712.34 742.22,708.56 C744.38,702.62 746.18,697.4 745.64,689.12 C745.46,689.12 745.28,688.58 745.28,688.04 C743.48,685.88 740.6,684.8 738.44,682.64 C738.08,681.92 737.72,682.28 737.54,682.28 C736.82,683.18 735.92,683 735.38,683.36 C733.76,684.44 729.98,688.4 728.9,689.66 C727.28,691.28 725.84,692.72 725.48,693.98 C725.48,694.16 724.76,694.52 724.58,694.7 C724.4,694.7 724.76,695.06 724.58,695.6 C724.58,695.6 723.68,695.24 723.5,695.6 C723.5,695.78 723.68,696.32 723.5,696.68 C723.5,696.86 722.6,696.86 722.42,697.04 C721.52,698.84 720.8,700.64 720.44,702.08 C719.54,704.24 717.92,710.9 718.46,714.14 C718.46,714.32 719.54,715.4 719.54,715.58 C720.44,718.46 719.36,716.48 720.62,718.28 C721.52,719 722.42,719.72 722.96,720.44 C721.7,722.6 721.88,722.6 720.08,725.12 C717.56,728.18 717.2,728.36 715.76,729.8 C713.78,731.96 713.78,731.96 711.08,735.02 C710,736.64 706.58,738.8 703.52,741.5 C703.52,742.76 706.22,743.48 710.72,743.3 C713.24,741.32 715.04,740.96 717.2,738.44 C719,736.64 720.62,736.64 721.52,733.94 C721.7,733.58 724.94,731.6 725.48,730.88 C728.18,727.64 727.1,728.72 729.8,725.12 C731.06,724.22 731.24,726.56 733.04,726.38 C734.48,727.46 736.46,727.46 737,729.44 C733.58,736.64 730.34,750.32 730.34,761.84 C730.34,765.44 730.52,769.04 731.42,771.92 C731.6,773 732.14,774.08 732.5,775.16 C733.04,776.06 733.76,779.3 734.48,780.02 C737,784.16 743.84,786.86 750.5,785.78 C752.48,785.42 755.18,784.16 756.8,782.36 C754.28,782.54 752.12,783.44 749.42,783.26 C748.52,782.18 749.6,782.18 748.7,781.28 C748.16,780.92 747.08,781.1 746.18,780.38 L746,779.84 C744.92,778.4 744.38,775.7 744.02,773.54 C743.12,767.42 744.92,761.12 746,756.44 C746.54,753.56 746.72,750.86 747.62,748.7 C747.8,748.52 748.7,747.8 748.7,747.62 C749.78,744.92 750.86,741.32 751.58,738.44 C752.84,737.18 753.74,735.2 754.82,733.58 C753.74,732.86 752.12,732.32 752.66,729.8 C751.94,729.44 751.58,729.08 750.86,728.54 C749.78,726.92 749.78,726.2 748.34,725.48 C748.34,725.48 748.16,724.76 747.8,724.76 C747.44,724.22 746.54,724.04 746,724.04 C745.1,723.14 744.02,722.6 742.94,721.88 C740.96,720.98 737.9,721.7 736.64,719.36 L736.64,719.36 Z M735.2,699.38 C735.56,699.02 736.46,699.2 736.64,698.48 C737,699.38 736.46,700.64 735.92,701.36 C734.48,704.96 731.96,708.56 730.16,713.06 C728.9,707.12 734.3,704.24 735.2,699.38 L735.2,699.38 Z M857.96,747.98 C859.22,747.08 863,744.56 864.08,743.48 C865.34,742.22 863.72,744.38 867.5,739.88 C867.5,739.88 870.2,732.86 869.66,732.32 C868.94,731.6 866.6,733.4 866.6,733.4 C858.68,739.88 836.72,749.24 832.04,749.78 C829.88,749.96 835.28,743.66 833.48,743.84 C838.7,737.72 838.52,730.7 837.8,727.1 C837.26,725.48 836.36,723.32 835.64,723.14 C835.46,722.6 835.46,722.06 835.28,721.88 L831.32,719.54 C830.78,719.54 830.6,718.64 829.52,718.28 C827.54,716.48 824.84,716.12 821.96,715.22 C812.24,714.14 802.16,717.92 796.22,719.9 C796.22,717.2 797.12,713.96 796.4,711.44 C796.22,710.18 794.42,710.18 794.6,709.1 C794.42,707.66 793.34,709.28 792.98,708.56 C792.8,706.04 791.72,705.86 792.08,704.6 C791,704.24 790.64,703.52 790.1,704.42 C791.36,703.16 784.7,700.46 785.24,701 C782.72,698.48 779.3,698.3 775.52,699.02 C776.78,702.44 776.96,705.5 777.14,709.1 C777.14,709.1 777.14,709.28 777.32,709.64 C776.24,716.66 774.44,722.96 771.56,730.34 C767.06,743.84 762.2,756.8 759.68,771.2 C755.72,785.78 752.48,801.44 752.12,818.36 C752.3,824.3 752.12,830.96 753.56,835.1 C753.56,837.26 754.28,839.6 755.36,842.12 C757.16,846.8 759.5,849.32 763.82,846.98 C763.28,844.28 763.1,843.02 762.56,841.76 C762.2,838.7 761.48,837.08 760.94,834.38 C761.66,834.56 761.48,833.48 761.66,833.12 C761.84,832.4 761.48,832.04 761.12,832.94 C761.12,833.12 761.12,833.48 760.76,833.3 C760.76,833.12 760.76,832.22 760.4,832.22 C760.76,825.56 760.58,818 761.66,809.72 C762.02,808.64 762.74,807.56 762.92,806.48 C763.1,804.86 763.1,802.52 763.28,801.08 C763.64,800.36 764,799.28 764.18,797.66 C764.9,795.68 765.26,794.42 766.16,792.98 C766.16,792.98 766.34,791.9 766.52,791 C767.6,786.86 768.5,784.52 770.3,781.1 C770.48,780.38 770.66,779.3 771.38,778.04 C771.74,777.68 772.28,775.16 773,776.06 C772.46,777.32 771.92,779.12 771.38,780.02 C771.38,785.42 767.06,791.36 767.42,797.3 C768.68,793.52 770.12,789.74 771.38,786.5 C772.46,782.54 773,779.3 775.52,776.6 C774.8,773.54 777.14,773.36 777.14,770.12 C778.22,769.76 779.12,769.04 779.84,768.14 C780.2,767.42 780.38,766.52 781.1,765.98 C783.8,766.52 784.34,768.14 785.78,769.4 C787.94,770.3 789.92,770.48 792.08,770.48 C796.22,770.48 800.36,769.4 803.6,768.32 C805.4,767.96 808.1,767.24 810.26,765.8 C814.04,763.82 812.42,766.88 816.56,764.72 C816.92,764.36 819.44,763.82 819.8,763.82 C820.16,763.64 822.5,762.74 823.22,762.56 L826.28,761.48 C828.98,760.58 827.36,760.94 830.6,759.68 C835.1,758.24 836.72,758.24 839.78,756.44 C841.4,756.8 845.72,754.1 848.24,753.2 C848.24,753.2 856.7,749.06 857.96,747.98 L857.96,747.98 Z M824.12,731.78 C822.5,733.76 821.96,734.66 819.8,736.1 C818.18,738.08 815.66,739.34 812.6,740.24 C809.54,742.04 806.12,743.3 803.78,745.46 C802.7,745.46 801.62,746.9 800.9,747.08 C800.72,747.44 800,747.08 799.82,747.08 C798.92,747.98 798.74,748.7 797.66,749.24 C797.3,749.78 795.5,749.78 794.42,750.14 C792.08,750.68 789.56,752.84 786.68,753.2 C788.48,751.76 788.84,747.98 789.92,745.64 C789.92,745.64 791,744.92 791.36,744.56 C791.36,744.2 791.18,743.66 791.36,743.3 C791.36,743.12 791.9,743.12 792.08,742.76 C792.8,741.5 793.88,740.96 796.04,739.88 C798.38,738.44 799.28,737.18 801.08,735.74 L802.7,735.2 L803.06,734.66 C805.04,733.76 806.3,733.58 807.2,732.68 C812.78,730.52 819.44,727.64 825.74,727.64 C826.28,729.62 824.48,731.24 824.12,731.78 L824.12,731.78 Z M932.84,732.68 C932.66,735.56 926.54,740.06 924.38,741.14 C923.48,741.5 923.3,741.5 922.22,742.4 C915.74,746.72 906.56,751.22 897.56,753.38 C893.6,754.1 888.38,755.18 884.6,755 C883.88,754.64 881.36,753.92 880.82,753.92 C874.7,753.2 875.96,746 876.86,744.2 C878.48,744.38 879.56,742.76 880.82,742.22 C881,741.68 881.9,742.22 882.44,741.68 C884.24,740.96 885.5,739.16 886.22,738.8 C886.58,738.44 887.84,738.08 888.38,737.72 C888.38,737.72 892.88,735.02 893.24,734.48 C895.4,732.68 898.28,731.42 900.08,729.8 C900.26,729.08 902.24,728 902.24,727.46 C903.5,725.84 905.12,724.94 906.92,722.78 C907.28,721.16 909.08,720.08 908.18,716.66 C908,716.3 907.28,715.76 907.1,715.22 C906.56,713.24 901.16,710 898.28,709.1 C897.56,709.1 897.2,709.82 896.84,709.28 C896.12,709.1 895.94,707.66 894.86,707.48 C891.44,706.76 887.12,705.86 883.52,708.74 C881.9,710 880.82,710.72 879.02,711.44 C877.4,713.06 875.78,713.96 874.88,715.4 C872.18,718.28 869.48,720.8 868.4,723.14 C867.68,724.04 867.32,724.94 867.14,725.84 C866.78,726.38 865.7,726.92 865.16,727.64 C864.98,728.36 864.98,729.26 864.8,730.7 C864.08,732.86 859.76,740.42 862.64,742.76 C862.28,743.48 861.74,743.48 861.2,743.66 C861.92,744.92 860.12,746.72 860.66,748.88 C860.84,749.24 861.2,750.68 861.92,751.04 C862.28,751.22 863,751.04 863.54,751.22 C865.7,752.48 866.78,757.52 869.3,758.42 C869.84,758.6 875.24,760.94 875.78,761.12 C877.76,761.84 880.1,761.66 882.26,762.56 C882.98,762.56 883.52,762.74 884.24,762.92 C886.22,763.28 888.38,763.28 889.82,762.92 C892.88,762.92 895.76,762.2 898.1,761.12 C899.54,761.12 901.16,760.94 902.42,760.4 C904.58,759.86 906.2,758.78 907.64,758.96 C908.72,757.16 910.34,757.7 911.96,756.62 C913.22,755.54 915.74,754.64 917.36,754.1 C919.7,752.48 919.52,751.4 922.04,750.32 C922.76,749.78 925.28,747.98 925.64,747.8 C926,747.62 927.8,745.46 928.52,745.28 C928.52,744.74 930.5,743.66 930.86,743.3 C931.76,742.22 933.02,740.42 933.56,739.16 C935.9,736.82 934.82,733.04 932.84,732.68 L932.84,732.68 Z M881.18,734.48 C881.18,734.48 880.28,734.84 880.28,734.12 C884.42,728.72 889.46,722.6 895.22,719.54 C895.22,719.54 895.4,719 896.48,719.54 C896.48,719.72 896.84,720.98 896.48,721.88 C896.12,723.14 894.14,724.76 892.7,725.84 C888.74,728.54 885.14,732.32 881.18,734.48 L881.18,734.48 Z M978.02,657.26 C977.48,656.18 976.94,656.18 976.22,655.64 L976.22,655.28 L975.86,655.28 C974.78,654.56 974.24,654.02 973.7,653.48 C972.98,653.48 972.08,652.94 971.9,652.94 C971,652.94 970.82,653.3 969.92,653.3 C969.74,652.76 969.56,653.48 969.2,653.48 C968.12,652.94 967.4,653.3 967.4,653.84 C967.4,654.02 967.04,654.92 966.68,655.1 C966.5,655.82 966.14,656 965.42,656.9 C964.52,657.44 963.98,659.06 963.08,660.32 C960.92,663.56 958.94,666.8 957.5,669.5 C957.32,670.4 956.6,671.12 955.52,672.02 C955.34,672.2 955.16,672.38 954.98,672.56 C954.98,672.74 955.16,673.1 955.34,673.46 C955.16,673.82 954.26,674.36 954.26,674.54 C954.08,674.9 954.08,675.62 953.9,675.98 C953.18,676.52 952.46,676.88 952.28,677.96 C951.74,678.86 951.92,679.76 951.2,679.94 C950.48,680.48 952.28,680.12 949.76,680.3 C939.68,680.12 931.94,680.84 923.3,682.1 C918.44,683.18 913.22,683.9 908.9,685.7 C906.92,686.42 904.4,687.32 901.88,686.78 C901.88,687.32 901.88,688.22 902.42,688.58 C902.96,689.66 904.76,690.74 906.2,691.64 C907.82,693.62 909.62,694.16 911.78,695.24 C913.22,695.6 914.12,695.96 915.02,695.96 C918.26,697.22 923.12,696.68 927.98,696.86 C931.4,696.14 935,696.14 938.78,695.96 C942.38,695.06 940.94,695.42 941.12,695.42 C940.94,696.68 940.04,697.4 939.68,699.2 C939.5,699.2 939.14,699.92 939.5,700.28 C939.14,700.46 938.6,701 938.6,701.18 C938.6,701.72 938.96,702.44 938.42,703.16 C938.42,703.34 938.06,703.34 937.88,703.52 C937.7,704.06 938.06,704.6 937.88,704.78 C937.7,705.32 936.8,705.32 936.44,706.22 C935.9,707.3 936.26,707.66 936.08,708.74 C936.08,709.46 935.36,710.18 935,710.54 C934.46,711.08 935.18,711.98 934.64,712.88 C934.46,713.96 933.92,714.32 933.92,714.5 C933.92,715.04 934.1,715.4 933.92,716.12 C933.92,716.66 933.38,717.02 933.2,717.38 C933.2,717.74 933.2,718.1 932.84,718.64 C932.84,719.36 932.3,719.72 932.48,720.08 C932.3,720.8 932.3,721.7 932.12,722.06 C932.3,722.78 931.76,722.78 931.4,723.14 C931.22,723.32 931.76,723.86 931.4,724.04 C931.4,724.4 930.68,724.22 930.68,724.76 C930.5,725.12 930.68,725.84 930.32,726.38 C930.5,726.92 929.96,727.28 929.6,727.82 C929.42,728.36 929.24,729.44 929.24,729.62 C928.52,730.88 927.98,732.5 927.98,733.4 C928.7,731.42 930.32,729.26 931.4,727.46 C931.4,727.28 931.4,726.92 931.22,726.56 L932.3,726.56 C933.02,725.84 934.82,722.6 935.18,722.06 C934.28,724.22 933.92,725.66 933.02,728.9 C933.02,729.44 932.3,730.88 932.12,731.6 C931.4,732.68 931.94,736.82 931.22,738.26 C931.4,739.34 930.68,740.24 930.68,741.32 C930.14,743.48 929.24,747.8 929.6,748.7 C929.78,748.88 929.6,749.96 929.06,750.68 C929.24,751.04 928.88,751.4 928.88,751.94 C928.7,752.48 929.24,753.02 929.24,753.56 C929.24,756.26 929.24,758.96 929.6,761.66 C929.78,764.36 930.68,767.42 930.68,769.58 C931.22,770.84 931.4,772.46 931.94,773.72 C931.76,774.62 932.3,775.88 932.48,776.78 C933.56,777.68 934.64,779.12 934.64,780.38 C935.72,782.18 935.54,782.54 936.26,783.44 C939.32,786.68 945.44,789.92 950.12,788.84 C952.28,788.48 952.82,787.76 953.9,787.04 C955.52,785.6 956.78,784.88 957.32,783.62 C958.04,783.26 958.94,782.54 959.12,782.18 C959.3,782.18 959.3,781.46 959.84,781.1 C959.84,780.38 961.28,779.3 960.38,778.04 C959.3,778.76 959.48,779.84 958.94,780.2 C957.86,781.64 955.88,782.54 954.08,782.18 C951.38,782.54 950.66,780.38 949.22,778.76 C949.22,777.86 949.58,778.94 949.4,778.04 C946.88,774.44 945.8,768.5 946.16,761.84 C945.8,760.76 945.8,759.5 945.8,758.6 L946.16,758.24 C946.52,757.16 946.52,754.1 947.24,752.48 C947.24,752.12 947.6,752.84 947.6,752.48 C947.6,752.12 947.42,750.86 947.6,751.04 C947.6,750.86 948.14,750.68 948.14,750.68 C948.32,750.14 947.96,749.96 947.96,749.96 C947.96,749.78 948.5,749.06 948.68,748.7 C949.58,746.72 949.22,744.56 949.76,743.3 C950.12,741.68 950.12,740.6 950.3,739.34 C951.38,738.44 950.84,736.64 951.56,734.84 C951.92,733.58 952.28,731.42 952.46,729.62 C952.46,729.08 953.54,727.64 953.54,726.92 C954.62,723.32 955.7,719.54 956.78,716.3 C956.96,714.5 957.68,712.88 958.4,711.8 C958.22,711.26 957.86,710 958.22,710 C958.04,709.28 958.76,708.74 959.12,707.3 C960.02,704.96 960.02,703.34 960.74,701.54 C961.1,700.28 961.46,699.74 961.82,698.66 C962.36,697.04 964.34,693.62 964.88,692.9 C965.6,692.18 966.32,692 968.3,692.36 C969.38,692.18 971.72,691.1 973.34,691.64 C974.24,691.64 975.32,691.28 976.4,690.92 C976.58,690.92 976.76,690.56 976.94,690.56 C977.48,690.56 978.02,690.92 978.56,690.56 C979.28,690.74 979.82,690.74 980.36,690.56 C984.14,690.2 987.74,689.66 991.88,689.3 C994.94,689.66 998,689.48 1000.7,689.3 C1002.32,688.94 1004.12,689.12 1005.92,689.12 C1009.52,688.76 1013.3,689.12 1016.9,688.94 C1017.08,688.22 1016.36,689.12 1016.54,688.22 C1016.9,688.58 1017.62,688.04 1017.98,687.86 C1017.8,686.96 1017.44,686.78 1018.52,686.24 C1009.16,683 998.18,682.46 988.46,681.74 C985.22,681.74 982.16,681.38 979.28,681.02 C976.04,681.02 974.24,681.38 970.64,680.84 C969.92,681.02 969.02,681.2 968.48,680.12 C969.56,675.8 971.36,671.66 972.8,668.06 C974.96,664.1 977.12,660.5 978.02,657.26 L978.02,657.26 Z" id="Carpet"></path>
        </g>
    </g>
</svg>